<?xml version="1.0" encoding="UTF-8"?><svg xmlns="http://www.w3.org/2000/svg" viewBox="0 0 121.01 90.22"><defs><style>.d{fill:#faebb0;}.e{fill:none;stroke:#565656;stroke-miterlimit:10;stroke-width:2px;}.f{fill:#020202;}.g{fill:#ffa580;}</style></defs><g id="a"/><g id="b"><g id="c"><g><g><path class="g" d="M6.1,37.98S-1.23,32.96,.18,0C29.93-.06,40.39,17.73,40.39,17.73c9.47-7.03,28.78-7.52,38.44-.46C88.97,4.59,102.78-2.15,120.17,.62c3.65,25.57-5.75,38.47-5.75,38.47,0,0,8.6,41.34-34.86,49.53-23.1,3.59-41.71-.63-41.71-.63,0,0-36.76-1.29-31.75-50Z"/><path class="d" d="M12.27,73.87c4.53-28.5,24.53-39.36,48.08-14.08,22.66-25.18,46.74-12.66,49.22,11.07-8.17,17.01-32.13,19.41-46.53,19.36-15.33-.05-41.53,.42-50.77-16.36Z"/><ellipse cx="83.61" cy="56.28" rx="5.36" ry="5.88"/><ellipse class="f" cx="37.1" cy="56.28" rx="5.36" ry="5.88"/><ellipse cx="60.35" cy="60.5" rx="3.24" ry="2.74"/></g><g><line class="e" x1="60.23" y1="62.99" x2="60.39" y2="67.66"/><line class="e" x1="60.16" y1="62.99" x2="60.29" y2="67.66"/></g><line class="e" x1="47.57" y1="67.91" x2="72.75" y2="67.91"/></g></g></g></svg>